<svg width="150" height="150" viewBox="0 0 150 150" fill="none" xmlns="http://www.w3.org/2000/svg">
<circle cx="26.6128" cy="7.25806" r="7.25806" fill="white"/>
<circle cx="26.6128" cy="45.9677" r="7.25806" fill="white"/>
<circle cx="26.6128" cy="84.6774" r="7.25806" fill="white"/>
<circle cx="26.6128" cy="123.387" r="7.25806" fill="white"/>
<circle cx="65.3225" cy="7.25806" r="7.25806" fill="white"/>
<circle cx="65.3225" cy="45.9677" r="7.25806" fill="white"/>
<circle cx="65.3225" cy="84.6774" r="7.25806" fill="white"/>
<circle cx="65.3225" cy="123.387" r="7.25806" fill="white"/>
<circle cx="104.032" cy="7.25806" r="7.25806" fill="white"/>
<circle cx="104.032" cy="45.9677" r="7.25806" fill="white"/>
<circle cx="104.032" cy="84.6774" r="7.25806" fill="white"/>
<circle cx="104.032" cy="123.387" r="7.25806" fill="white"/>
<circle cx="142.742" cy="7.25806" r="7.25806" fill="white"/>
<circle cx="142.742" cy="45.9677" r="7.25806" fill="white"/>
<circle cx="142.742" cy="84.6774" r="7.25806" fill="white"/>
<circle cx="142.742" cy="123.387" r="7.25806" fill="white"/>
<circle cx="26.6128" cy="26.6129" r="7.25806" fill="white"/>
<circle cx="26.6128" cy="65.3226" r="7.25806" fill="white"/>
<circle cx="26.6128" cy="104.032" r="7.25806" fill="white"/>
<circle cx="26.6128" cy="142.742" r="7.25806" fill="white"/>
<circle cx="65.3225" cy="26.6129" r="7.25806" fill="white"/>
<circle cx="65.3225" cy="65.3226" r="7.25806" fill="white"/>
<circle cx="65.3225" cy="104.032" r="7.25806" fill="white"/>
<circle cx="65.3225" cy="142.742" r="7.25806" fill="white"/>
<circle cx="104.032" cy="26.6129" r="7.25806" fill="white"/>
<circle cx="104.032" cy="65.3226" r="7.25806" fill="white"/>
<circle cx="104.032" cy="104.032" r="7.25806" fill="white"/>
<circle cx="104.032" cy="142.742" r="7.25806" fill="white"/>
<circle cx="142.742" cy="26.6129" r="7.25806" fill="white"/>
<circle cx="142.742" cy="65.3226" r="7.25806" fill="white"/>
<circle cx="142.742" cy="104.032" r="7.25806" fill="white"/>
<circle cx="142.742" cy="142.742" r="7.25806" fill="white"/>
<circle cx="7.25806" cy="7.25806" r="7.25806" fill="white"/>
<circle cx="7.25806" cy="45.9677" r="7.25806" fill="white"/>
<circle cx="7.25806" cy="84.6774" r="7.25806" fill="white"/>
<circle cx="7.25806" cy="123.387" r="7.25806" fill="white"/>
<circle cx="45.9678" cy="7.25806" r="7.25806" fill="white"/>
<circle cx="45.9678" cy="45.9677" r="7.25806" fill="white"/>
<circle cx="45.9678" cy="84.6774" r="7.25806" fill="white"/>
<circle cx="45.9678" cy="123.387" r="7.25806" fill="white"/>
<circle cx="84.6775" cy="7.25806" r="7.25806" fill="white"/>
<circle cx="84.6775" cy="45.9677" r="7.25806" fill="white"/>
<circle cx="84.6775" cy="84.6774" r="7.25806" fill="white"/>
<circle cx="84.6775" cy="123.387" r="7.25806" fill="white"/>
<circle cx="123.387" cy="7.25806" r="7.25806" fill="white"/>
<circle cx="123.387" cy="45.9677" r="7.25806" fill="white"/>
<circle cx="123.387" cy="84.6774" r="7.25806" fill="white"/>
<circle cx="123.387" cy="123.387" r="7.25806" fill="white"/>
<circle cx="7.25806" cy="26.6129" r="7.25806" fill="white"/>
<circle cx="7.25806" cy="65.3226" r="7.25806" fill="white"/>
<circle cx="7.25806" cy="104.032" r="7.25806" fill="white"/>
<circle cx="7.25806" cy="142.742" r="7.25806" fill="white"/>
<circle cx="45.9678" cy="26.6129" r="7.25806" fill="white"/>
<circle cx="45.9678" cy="65.3226" r="7.25806" fill="white"/>
<circle cx="45.9678" cy="104.032" r="7.25806" fill="white"/>
<circle cx="45.9678" cy="142.742" r="7.25806" fill="white"/>
<circle cx="84.6775" cy="26.6129" r="7.25806" fill="white"/>
<circle cx="84.6775" cy="65.3226" r="7.25806" fill="white"/>
<circle cx="84.6775" cy="104.032" r="7.25806" fill="white"/>
<circle cx="84.6775" cy="142.742" r="7.25806" fill="white"/>
<circle cx="123.387" cy="26.6129" r="7.25806" fill="white"/>
<circle cx="123.387" cy="65.3226" r="7.25806" fill="white"/>
<circle cx="123.387" cy="104.032" r="7.25806" fill="white"/>
<circle cx="123.387" cy="142.742" r="7.25806" fill="white"/>
</svg>
